<?xml version="1.0" standalone="no"?>
<!DOCTYPE svg PUBLIC "-//W3C//DTD SVG 20010904//EN"
 "http://www.w3.org/TR/2001/REC-SVG-20010904/DTD/svg10.dtd">
<svg version="1.0" xmlns="http://www.w3.org/2000/svg"
 width="400.000000pt" height="400.000000pt" viewBox="0 0 400.000000 400.000000"
 preserveAspectRatio="xMidYMid meet">
<metadata>
Created by potrace 1.14, written by Peter Selinger 2001-2017
</metadata>
<g transform="translate(0.000000,400.000000) scale(0.100000,-0.100000)"
fill="#000000" stroke="none">
<path d="M1220 3720 c-135 -5 -171 -10 -193 -25 -61 -39 -57 77 -57 -1725 0
-1236 3 -1657 12 -1673 24 -45 31 -46 294 -47 268 0 299 4 347 49 64 59 62 30
67 664 5 558 6 579 24 593 16 12 96 14 461 14 518 0 519 0 601 84 58 60 113
178 146 315 31 131 13 191 -65 220 -19 7 -217 11 -591 11 l-563 0 -7 31 c-8
41 -8 753 1 802 4 29 12 41 31 48 47 18 442 22 827 9 416 -14 425 -14 465 38
41 52 15 240 -53 381 -18 36 -54 89 -82 118 -60 62 -106 77 -275 93 -125 11
-1116 11 -1390 0z"/>
</g>
</svg>
