<?xml version="1.0" standalone="no"?>
<!DOCTYPE svg PUBLIC "-//W3C//DTD SVG 20010904//EN"
 "http://www.w3.org/TR/2001/REC-SVG-20010904/DTD/svg10.dtd">
<svg version="1.0" xmlns="http://www.w3.org/2000/svg"
 width="360.000000pt" height="360.000000pt" viewBox="0 0 360.000000 360.000000"
 preserveAspectRatio="xMidYMid meet">
<metadata>
Created by potrace 1.11, written by Peter Selinger 2001-2013
</metadata>
<g transform="translate(0.000000,360.000000) scale(0.100000,-0.100000)"
fill="#000000" stroke="none">
<path d="M1170 3208 c-146 -5 -284 -13 -307 -19 -23 -6 -54 -24 -70 -41 l-28
-29 -3 -1322 c-2 -1243 -1 -1324 15 -1357 29 -58 57 -62 378 -58 276 3 281 3
330 28 40 20 55 35 75 75 l25 50 5 400 5 400 475 6 c531 6 545 8 621 76 52 47
113 172 144 297 42 164 31 246 -38 283 -29 17 -80 18 -619 21 l-588 3 0 253 0
254 78 8 c42 4 302 3 577 -1 650 -11 605 -11 643 9 70 36 79 140 27 306 -65
204 -150 302 -294 337 -119 29 -861 40 -1451 21z"/>
</g>
</svg>
